<svg width="18" height="20" viewBox="0 0 18 20" fill="none" xmlns="http://www.w3.org/2000/svg">
<path d="M15 7L13 7C12.4 7 12 7.4 12 8C12 8.6 12.4 9 13 9L15 9C15.6 9 16 9.4 16 10L16 17C16 17.6 15.6 18 15 18L3 18C2.4 18 2 17.6 2 17L2 10C2 9.4 2.4 9 3 9L5 9C5.6 9 6 8.6 6 8C6 7.4 5.6 7 5 7L3 7C1.3 7 -1.45122e-06 8.3 -1.74846e-06 10L-2.97237e-06 17C-3.26961e-06 18.7 1.3 20 3 20L15 20C16.7 20 18 18.7 18 17L18 10C18 8.3 16.7 7 15 7ZM5.3 12.7L8.3 15.7C8.5 15.9 8.7 16 9 16C9.3 16 9.5 15.9 9.7 15.7L12.7 12.7C13.1 12.3 13.1 11.7 12.7 11.3C12.3 10.9 11.7 10.9 11.3 11.3L10 12.6L10 1C10 0.400002 9.6 1.67852e-06 9 1.57361e-06C8.4 1.4687e-06 8 0.400001 8 1L8 12.6L6.7 11.3C6.3 10.9 5.7 10.9 5.3 11.3C4.9 11.7 4.9 12.3 5.3 12.7Z" fill="#75839D"/>
</svg>
