<svg width="52" height="65" viewBox="0 0 52 65" fill="none" xmlns="http://www.w3.org/2000/svg">
<path d="M52 22.555C51.9661 22.2564 51.9008 21.9623 51.805 21.6775V21.385C51.6487 21.0508 51.4403 20.7437 51.1875 20.475L31.6875 0.975C31.4188 0.722203 31.1117 0.513763 30.7775 0.3575H30.485L29.445 0H9.75C7.16414 0 4.68419 1.02723 2.85571 2.85571C1.02723 4.68419 0 7.16414 0 9.75V55.25C0 57.8359 1.02723 60.3158 2.85571 62.1443C4.68419 63.9728 7.16414 65 9.75 65H42.25C44.8359 65 47.3158 63.9728 49.1443 62.1443C50.9728 60.3158 52 57.8359 52 55.25V22.75C52 22.75 52 22.75 52 22.555ZM32.5 11.0825L40.9175 19.5H32.5V11.0825ZM45.5 55.25C45.5 56.112 45.1576 56.9386 44.5481 57.5481C43.9386 58.1576 43.112 58.5 42.25 58.5H9.75C8.88805 58.5 8.0614 58.1576 7.4519 57.5481C6.84241 56.9386 6.5 56.112 6.5 55.25V9.75C6.5 8.88805 6.84241 8.0614 7.4519 7.4519C8.0614 6.84241 8.88805 6.5 9.75 6.5H26V22.75C26 23.612 26.3424 24.4386 26.9519 25.0481C27.5614 25.6576 28.388 26 29.25 26H45.5V55.25Z" fill="#4D90FF"/>
</svg>
